<?xml version="1.0" encoding="UTF-8"?>
<svg version="1.1" xmlns="http://www.w3.org/2000/svg" width="1207" height="1207">
<path d="M0 0 C4.04950582 3.3641081 8.22030128 6.92391349 10 12 C10.29554648 17.88754684 9.55804185 22.6720167 7.88305664 28.29370117 C7.54305429 29.48192191 7.54305429 29.48192191 7.1961832 30.69414711 C6.44409138 33.31339599 5.67713635 35.92804458 4.91015625 38.54296875 C4.37315081 40.40292953 3.83715168 42.26318111 3.30209351 44.123703 C2.16141496 48.08335372 1.01446954 52.04111179 -0.13748169 55.99749756 C-1.95685529 62.24772391 -3.76027294 68.50247987 -5.56030273 74.75830078 C-6.16455102 76.85779241 -6.76881431 78.95727972 -7.37309265 81.0567627 C-7.6712406 82.09270065 -7.96938854 83.12863861 -8.27657127 84.19596863 C-9.17988675 87.33272313 -10.08450777 90.46909815 -10.98957825 93.60534668 C-33.71049752 172.34662161 -54.837291 251.56714097 -75 331 C-72.55639617 332.62906922 -70.76137022 333.56322358 -68.0703125 334.55859375 C-58.68628089 338.11815359 -49.59881874 341.99488876 -40.6875 346.625 C-39.82334473 347.0677124 -38.95918945 347.5104248 -38.06884766 347.96655273 C-25.40073892 354.68246045 -25.40073892 354.68246045 -22.8125 360.8125 C-23.07901443 365.34324529 -24.62372168 369.14240532 -27 373 C-32.10709813 376.40473208 -38.26004591 375.34056215 -44.25 375.3125 C-44.93941681 375.31233887 -45.62883362 375.31217773 -46.33914185 375.31201172 C-59.06557212 375.29132284 -71.43950057 374.09134183 -84 372 C-85.97584759 378.15999544 -87.84632646 384.31261002 -89.42578125 390.5859375 C-89.67569824 391.56030762 -89.92561523 392.53467773 -90.18310547 393.53857422 C-90.67948375 395.48714011 -91.16198822 397.43930182 -91.62939453 399.39501953 C-91.86384277 400.30622559 -92.09829102 401.21743164 -92.33984375 402.15625 C-92.53956787 402.96900391 -92.73929199 403.78175781 -92.94506836 404.61914062 C-94 407 -94 407 -96.35742188 408.96142578 C-100.80118185 413.16609382 -101.50565759 419.74227675 -102.94140625 425.4609375 C-103.30356059 426.84987567 -103.66720277 428.23842661 -104.0322113 429.62661743 C-105.02183679 433.408921 -105.98946309 437.19654409 -106.95288086 440.9855957 C-107.98503909 445.03114339 -109.03593344 449.07182791 -110.08398438 453.11328125 C-112.07837908 460.81810733 -114.05273286 468.52792973 -116.01902199 476.23997116 C-117.51674944 482.11276836 -119.02274119 487.98338222 -120.53466797 493.85253906 C-132.9190619 541.94511117 -144.65741578 590.17812029 -155.95629883 638.53674316 C-156.93828576 642.73848529 -157.92477511 646.93916024 -158.91210938 651.13964844 C-169.27796451 695.28228144 -178.80594534 739.60006937 -188 784 C-188.14656288 784.70760216 -188.29312576 785.41520432 -188.44412994 786.14424896 C-198.05246625 832.57241607 -206.09313307 879.25821084 -214 926 C-213.48513031 925.76729401 -212.97026062 925.53458801 -212.43978882 925.29483032 C-189.65098816 915.00123077 -189.65098816 915.00123077 -178.72167969 910.28466797 C-177.2962494 909.66622907 -175.87347287 909.041645 -174.453125 908.41162109 C-172.34190814 907.47609762 -170.22305846 906.56036591 -168.1015625 905.6484375 C-167.15937363 905.22369644 -167.15937363 905.22369644 -166.19815063 904.79037476 C-162.02006119 903.02763621 -159.34671979 902.72939303 -155 904 C-152.63593317 905.0410906 -150.3996353 906.11075004 -148.125 907.31640625 C-147.47861572 907.65115463 -146.83223145 907.98590302 -146.16625977 908.33079529 C-144.79940845 909.04062117 -143.43461081 909.75441408 -142.07177734 910.47192383 C-140.03786109 911.54257006 -137.99821412 912.60148894 -135.95703125 913.65820312 C-131.95339655 915.73910267 -127.97073599 917.85703582 -124 920 C-123.34084595 920.3554187 -122.68169189 920.7108374 -122.00256348 921.07702637 C-120.08367851 922.11934408 -118.17340777 923.17580209 -116.265625 924.23828125 C-115.15993164 924.85098877 -114.05423828 925.46369629 -112.91503906 926.0949707 C-108.1063972 929.23750274 -105.18816251 933.30131694 -102 938 C-101.14916802 939.19378997 -100.29478341 940.3850532 -99.4375 941.57421875 C-97.70915911 943.97302594 -95.99694356 946.38187786 -94.296875 948.80078125 C-93.53890625 949.85652344 -92.7809375 950.91226563 -92 952 C-91.41330032 952.86824402 -90.82660065 953.73648804 -90.22212219 954.63104248 C-87.47191121 957.56298431 -86.10288709 957.74960788 -82.14916992 958.10253906 C-80.97082077 958.21905823 -79.79247162 958.33557739 -78.57841492 958.45562744 C-76.67368156 958.60907623 -76.67368156 958.60907623 -74.73046875 958.765625 C-73.42096756 958.88935486 -72.11146637 959.01308472 -70.76228333 959.14056396 C-67.28299467 959.46926388 -63.80187871 959.77081899 -60.31964111 960.06640625 C-56.79435725 960.36996031 -53.27129027 960.69718168 -49.74804688 961.0234375 C-45.77885131 961.3904161 -41.80944063 961.75326658 -37.83842468 962.10015869 C-34.55757314 962.38717114 -31.27853159 962.68771473 -28 963 C-27.25198624 963.06721252 -26.50397247 963.13442505 -25.73329163 963.20367432 C-22.13658902 963.6018392 -19.89801013 964.32398727 -17.16015625 966.703125 C-16.49790039 967.26475342 -15.83564453 967.82638184 -15.15332031 968.4050293 C-14.46334961 969.01386963 -13.77337891 969.62270996 -13.0625 970.25 C-11.55923872 971.53330799 -10.05531665 972.81584226 -8.55078125 974.09765625 C-7.79361816 974.75008301 -7.03645508 975.40250977 -6.25634766 976.07470703 C-2.81009715 979.01531853 0.71973589 981.84885492 4.25 984.6875 C9.69434866 989.09299297 15.0739967 993.56602799 20.40576172 998.10693359 C24.74889372 1001.8026084 29.14098549 1005.43125062 33.6015625 1008.984375 C36 1011 36 1011 37.7109375 1012.890625 C40.35593028 1015.76386589 42.09426941 1016.91944742 46.07177734 1017.27319336 C47.2727002 1017.25393799 48.47362305 1017.23468262 49.7109375 1017.21484375 C50.36768463 1017.20569946 51.02443176 1017.19655518 51.70108032 1017.18713379 C59.27220894 1017.04433087 66.82315742 1016.53189532 74.375 1016 C76.46402287 1015.85512478 78.553118 1015.71182665 80.64248657 1015.57202148 C82.52149631 1015.44601283 84.40016756 1015.31498492 86.27880859 1015.18359375 C87.50680176 1015.12300781 88.73479492 1015.06242187 90 1015 C90.69901932 1014.88617981 91.39803864 1014.77235962 92.11824036 1014.65509033 C95.90744891 1014.23468542 98.14009985 1014.40969854 101.33746338 1016.60461426 C103.9262621 1018.98285036 106.32362542 1021.47003594 108.71484375 1024.046875 C110.08387036 1025.45711162 111.45291436 1026.86733181 112.82293797 1028.27659988 C114.73093728 1030.24997035 116.61797716 1032.24275891 118.50469971 1034.2364502 C121.79628991 1037.71354727 125.1013082 1041.17725768 128.43495178 1044.61407471 C130.20393657 1046.44191407 131.95798195 1048.28437035 133.69432068 1050.14324951 C139.01707893 1055.65962209 143.64415474 1058.82161464 151 1061 C152.07467529 1061.34804687 153.14935059 1061.69609375 154.2565918 1062.0546875 C155.22765869 1062.32539062 156.19872559 1062.59609375 157.19921875 1062.875 C158.96688599 1063.37833862 158.96688599 1063.37833862 160.77026367 1063.8918457 C161.40274017 1064.07043121 162.03521667 1064.24901672 162.68685913 1064.43301392 C180.42848133 1069.46102921 197.99661901 1075.047793 215.56692886 1080.63787842 C217.67106078 1081.30727016 219.77537957 1081.97607167 221.87973022 1082.64477539 C225.90357435 1083.92380992 229.9265318 1085.20561269 233.94921875 1086.48828125 C235.14208496 1086.8682576 236.33495117 1087.24823395 237.56396484 1087.63972473 C246.06619513 1090.35742103 254.53773522 1093.16089991 263 1096 C263 1096.33 263 1096.66 263 1097 C-51.16 1097 -365.32 1097 -689 1097 C-686.0512001 1094.0512001 -682.35306872 1093.37951632 -678.44921875 1092.19140625 C-677.55161331 1091.91270187 -676.65400787 1091.6339975 -675.72920227 1091.34684753 C-672.71704217 1090.41300241 -669.70225857 1089.48791863 -666.6875 1088.5625 C-664.57205926 1087.90789309 -662.45682909 1087.25260536 -660.34179688 1086.59667969 C-655.73969637 1085.17032301 -651.13658025 1083.74730978 -646.53271484 1082.32666016 C-635.06332245 1078.7861127 -623.60051257 1075.22436973 -612.13894558 1071.65858173 C-608.07284579 1070.39377185 -604.00591052 1069.13169777 -599.93825054 1067.87191486 C-597.99739896 1067.27047638 -596.05688233 1066.66797097 -594.11650085 1066.0650177 C-591.73839938 1065.32609171 -589.35978162 1064.58882432 -586.98054504 1063.8535614 C-574.36375051 1060.0223581 -574.36375051 1060.0223581 -563.375 1053 C-562.15515269 1052.01146601 -560.93509454 1051.02319214 -559.71484375 1050.03515625 C-559.0997998 1049.53129395 -558.48475586 1049.02743164 -557.85107422 1048.50830078 C-554.91053055 1046.11227351 -551.92390616 1043.77592024 -548.9375 1041.4375 C-548.35790527 1040.98181641 -547.77831055 1040.52613281 -547.18115234 1040.05664062 C-542.77262639 1036.59288679 -538.33255238 1033.17168053 -533.88330078 1029.76049805 C-530.0053122 1026.78340323 -526.15336957 1023.7747944 -522.3125 1020.75 C-520.5270244 1019.34565089 -518.74134898 1017.94155639 -516.95556641 1016.53759766 C-515.58775414 1015.46213178 -514.22026782 1014.38625129 -512.85302734 1013.31005859 C-508.30742874 1009.73618909 -503.73936034 1006.19406062 -499.15136719 1002.67480469 C-497.127079 1001.09892895 -495.14377506 999.48282906 -493.1640625 997.8515625 C-491.98522709 996.92079479 -490.80559021 995.9910409 -489.625 995.0625 C-488.62726563 994.24910156 -487.62953125 993.43570313 -486.6015625 992.59765625 C-476.22052379 987.99261847 -460.89350737 993.85985077 -450.125 996.0625 C-447.34358346 996.63021974 -444.56182748 997.1958079 -441.77853394 997.7542572 C-440.05893655 998.09931719 -438.34037338 998.44958648 -436.62307739 998.80592346 C-428.65801667 1000.6228452 -428.65801667 1000.6228452 -421.11181641 998.31347656 C-420.07718262 997.51393555 -419.04254883 996.71439453 -417.9765625 995.890625 C-416.7389598 994.96154248 -415.49818683 994.0366734 -414.25488281 993.11523438 C-413.57784302 992.61241943 -412.90080322 992.10960449 -412.20324707 991.59155273 C-408.13012567 988.6492647 -403.91616689 985.92036256 -399.7109375 983.171875 C-398.33521576 982.26943054 -398.33521576 982.26943054 -396.93170166 981.34875488 C-393.13653382 978.86093446 -389.33761515 976.37887321 -385.53857422 973.89697266 C-382.71931565 972.05370504 -379.90207028 970.20741431 -377.0859375 968.359375 C-376.16721863 967.7574231 -375.24849976 967.15547119 -374.30194092 966.53527832 C-366.87637736 961.64246132 -359.59626198 956.55656712 -352.41220093 951.31536865 C-351.25610825 950.48685394 -351.25610825 950.48685394 -350.07666016 949.64160156 C-349.40736481 949.15419495 -348.73806946 948.66678833 -348.04849243 948.16461182 C-344.86609446 946.35535042 -342.28764394 945.73342742 -338.67930603 946.48043823 C-337.88528885 946.76388092 -337.09127167 947.04732361 -336.27319336 947.33935547 C-335.36552719 947.65653534 -334.45786102 947.97371521 -333.52268982 948.30050659 C-332.55485062 948.65251129 -331.58701141 949.00451599 -330.58984375 949.3671875 C-329.58538712 949.72136749 -328.58093048 950.07554749 -327.54603577 950.44046021 C-324.3389936 951.57386006 -321.13822715 952.72390134 -317.9375 953.875 C-314.73201135 955.01533799 -311.52533903 956.1522808 -308.31825256 957.28811646 C-306.32374402 957.9958708 -304.33040111 958.70692048 -302.33836365 959.42160034 C-301.43384964 959.74508453 -300.52933563 960.06856873 -299.59741211 960.40185547 C-298.80419052 960.68688934 -298.01096893 960.97192322 -297.19371033 961.26559448 C-295.14377536 961.9518672 -293.10415361 962.50842281 -291 963 C-290.88852631 962.04684906 -290.77705261 961.09369812 -290.66220093 960.11166382 C-289.44075271 949.8892368 -287.88245081 939.75098244 -286.1640625 929.6015625 C-285.88625413 927.94664308 -285.6086516 926.2916891 -285.33123779 924.63670349 C-284.43480256 919.29850932 -283.5303706 913.96168483 -282.625 908.625 C-282.46882454 907.70319317 -282.31264908 906.78138634 -282.15174103 905.83164597 C-270.52145365 837.18627181 -257.42390887 768.90684362 -243.5453186 700.6815033 C-243.03383886 698.16639634 -242.52301827 695.65115661 -242.01245117 693.13586426 C-226.47371102 616.61279087 -208.38910434 540.61871995 -189.1875 464.9375 C-188.87825592 463.71828857 -188.56901184 462.49907715 -188.25039673 461.24291992 C-185.1415919 449.01078991 -181.9770065 436.79860318 -178.6171875 424.6328125 C-178.35426407 423.67595047 -178.09134064 422.71908844 -177.82044983 421.73323059 C-176.61700242 417.35806072 -175.39926871 412.98822222 -174.1472168 408.62670898 C-172.0723126 401.24976163 -170.7448378 394.67788236 -171.08081055 386.95581055 C-170.91701087 380.96450349 -168.87960397 375.3138025 -167.125 369.625 C-166.76019531 368.39394531 -166.39539063 367.16289062 -166.01953125 365.89453125 C-164.43182826 360.56562266 -162.77556151 355.26944019 -161 350 C-161.60948486 349.83129395 -162.21896973 349.66258789 -162.84692383 349.48876953 C-169.02444327 347.71632169 -174.84082677 345.53516661 -180.6875 342.875 C-181.54601562 342.48610596 -182.40453125 342.09721191 -183.2890625 341.6965332 C-188.85539722 339.12168985 -194.23492994 336.33293516 -199.5 333.1875 C-200.10416748 332.8270459 -200.70833496 332.4665918 -201.33081055 332.09521484 C-204.62220571 330.05847211 -207.61822409 328.0740162 -210 325 C-210.47702249 320.26824463 -209.6213507 313.99443917 -207 310 C-202.24432904 307.94525972 -197.73365285 307.6518733 -192.625 307.6875 C-191.40780273 307.69160889 -191.40780273 307.69160889 -190.16601562 307.69580078 C-175.64567762 307.93343611 -161.24884312 310.36916856 -147 313 C-146.88486557 312.45727448 -146.76973114 311.91454895 -146.65110779 311.3553772 C-143.69823345 297.57829502 -140.13464457 284.09412345 -136.04452515 270.61386108 C-134.27025678 264.76206718 -132.52324394 258.90211459 -130.7734375 253.04296875 C-130.58523878 252.41369539 -130.39704006 251.78442204 -130.20313835 251.13607979 C-125.32709163 234.82878915 -120.60985944 218.47572218 -115.89035416 202.1225853 C-113.76851115 194.77131809 -111.64409333 187.42079425 -109.51953125 180.0703125 C-109.16983685 178.86029729 -109.16983685 178.86029729 -108.81307793 177.62583733 C-103.65438114 159.77836444 -98.44256556 141.94658016 -93.21939087 124.1178894 C-88.91069086 109.41015591 -84.61646839 94.69847806 -80.36292648 79.97468376 C-79.68844803 77.64000033 -79.01364824 75.30540998 -78.33877563 72.97084045 C-75.73476981 63.96265809 -75.73476981 63.96265809 -73.13787842 54.9524231 C-70.64376592 46.28596762 -68.12822152 37.62620584 -65.58042908 28.97537231 C-64.98410491 26.94590429 -64.39179955 24.91529176 -63.79992676 22.88452148 C-62.81457276 19.50987377 -61.81278048 16.14048523 -60.799366 12.77416229 C-60.24402302 10.91774262 -59.70287568 9.05709474 -59.16220093 7.1963501 C-56.82569024 -0.48194758 -54.91182449 -5.82676417 -47.625 -9.875 C-31.6937717 -14.8665856 -13.31842958 -8.90894952 0 0 Z " fill="#232323" transform="translate(794,87)"/>
<path d="M0 0 C0.33 0.66 0.66 1.32 1 2 C-0.11621851 4.48048558 -1.29204989 6.84985751 -2.5625 9.25 C-3.31259766 10.71476539 -4.05995455 12.18093726 -4.8046875 13.6484375 C-5.17819336 14.38416992 -5.55169922 15.11990234 -5.93652344 15.87792969 C-20.78149371 45.4997115 -24.25337958 77.40990331 -14.17993164 109.04931641 C-11.55541557 116.74372646 -7.92237637 123.89602214 -4 131 C-3.65453125 131.6276123 -3.3090625 132.25522461 -2.953125 132.90185547 C1.5887971 141.03875975 6.7609975 148.49163823 12.41479492 155.88989258 C35.20286056 185.85672196 51.06598455 218.87259793 46.01806641 257.25463867 C45.07478147 263.99297414 44.02984979 270.49565524 42 277 C60.5875981 259.72833805 70.95903763 225.91054638 72.1262207 201.34326172 C72.66592676 181.06059392 71.01766332 162.1046186 64 143 C63.72027344 142.22688477 63.44054687 141.45376953 63.15234375 140.65722656 C58.99872834 129.32468927 53.99087273 118.84988766 47.90625 108.4296875 C46 105 46 105 46 103 C54.55971325 106.96135566 61.81454758 113.51854713 68.6796875 119.8671875 C70.68036832 121.70619714 72.72504881 123.44941303 74.8125 125.1875 C89.74045193 138.24568826 101.34138532 154.4155867 112 171 C112.91458984 172.2065625 112.91458984 172.2065625 113.84765625 173.4375 C116.22302785 178.71968227 113.69618089 185.71004361 112.33618164 191.12182617 C112.08612208 192.12573615 112.08612208 192.12573615 111.83101082 193.14992714 C111.46877045 194.60173331 111.10439299 196.05300761 110.73808861 197.50379372 C110.14382489 199.85765686 109.55528694 202.21289084 108.96809387 204.56852722 C108.11649037 207.98316925 107.26272961 211.39726116 106.40740967 214.81097412 C104.10129045 224.02186253 101.82075656 233.23910213 99.54296875 242.45703125 C99.30955528 243.40155655 99.07614182 244.34608185 98.83565521 245.31922913 C77.86235201 330.2503194 59.61131727 415.74181378 42.62109375 501.55078125 C42.351635 502.91057256 42.351635 502.91057256 42.07673264 504.2978344 C41.57405024 506.83676593 41.07274263 509.37596424 40.57202148 511.9152832 C40.42618653 512.65183828 40.28035158 513.38839336 40.13009739 514.1472683 C39.35497798 518.08887499 38.63868964 522.0339821 38 526 C21.79352551 518.59834174 9.64332403 494.15545952 3.27734375 478.4609375 C-8.45162586 446.68152749 -4.75789123 416.93282432 7 386 C-1.89632803 396.50869908 -9.85084997 407.23144177 -17 419 C-17.40202637 419.64904297 -17.80405273 420.29808594 -18.21826172 420.96679688 C-39.57518098 455.66628631 -46.40493182 498.22395492 -38 538 C-37.8443457 538.75974121 -37.68869141 539.51948242 -37.52832031 540.30224609 C-31.52288473 568.57334353 -17.58281232 592.47681633 0 615 C-4.62464032 616.54154677 -7.95581175 614.46625144 -12.375 612.75 C-13.3023999 612.39228516 -14.2297998 612.03457031 -15.18530273 611.66601562 C-39.57064346 601.98175726 -59.97728328 587.88460546 -79 570 C-79.95519531 569.12601563 -79.95519531 569.12601563 -80.9296875 568.234375 C-91.81848781 557.91866944 -101.3006369 544.39872621 -108 531 C-107.49473679 557.50335209 -98.9136066 586.12120226 -86.01806641 609.17724609 C-84.94912573 611.09108569 -83.91704748 613.02216152 -82.88671875 614.95703125 C-72.15971075 634.84358664 -58.32876862 651.54455206 -43 668 C-47.31629333 671.57978296 -51.84651359 674.75660151 -56.5 677.875 C-57.24636719 678.39835937 -57.99273437 678.92171875 -58.76171875 679.4609375 C-64.24335544 683.10889395 -64.24335544 683.10889395 -67.6328125 682.62109375 C-70.63062496 680.56813637 -73.54790115 678.46792227 -76.375 676.1875 C-76.98947998 675.69523926 -77.60395996 675.20297852 -78.23706055 674.69580078 C-80.16587936 673.13991469 -82.08380166 671.57139132 -84 670 C-84.84667236 669.31429932 -84.84667236 669.31429932 -85.71044922 668.61474609 C-94.95516876 661.08251503 -103.42987916 652.77758978 -111.875 644.375 C-112.40920563 643.8460614 -112.94341125 643.3171228 -113.49380493 642.77215576 C-120.4657727 635.85339684 -126.93056843 628.74096353 -133 621 C-133.85972412 619.92129639 -133.85972412 619.92129639 -134.73681641 618.82080078 C-171.4006545 572.59637712 -193.05578626 517.90615535 -186.17773438 458.14526367 C-180.40531562 415.34987834 -159.98659129 378.19995266 -138.25 341.5625 C-123.87590019 317.3307643 -110.48644541 293.57877382 -108 265 C-107.92652344 264.20207031 -107.85304688 263.40414063 -107.77734375 262.58203125 C-106.96079174 244.22736209 -114.5439921 225.81541535 -123 210 C-116.59088925 212.19410999 -112.04236172 216.61286042 -107 221 C-106.29359375 221.6084375 -105.5871875 222.216875 -104.859375 222.84375 C-90.44320201 236.20508107 -80.12110368 257.38761295 -78.8737793 276.98291016 C-77.95141008 302.90880552 -86.07997435 325.49947603 -95.375 349.4375 C-106.32526119 377.7329327 -106.29391715 406.05927919 -94 434 C-93.01401012 436.00694394 -92.01765927 438.00892752 -91 440 C-91.02320313 438.88625 -91.04640625 437.7725 -91.0703125 436.625 C-91.58141628 401.8199857 -79.52665502 375.09375686 -60.94921875 346.25 C-50.76681311 330.42917158 -40.86440711 314.32875759 -36 296 C-35.68417969 294.92105469 -35.36835938 293.84210938 -35.04296875 292.73046875 C-26.42518764 258.29869492 -38.60715214 223.45498853 -49.7109375 191.171875 C-50.04092743 190.21078323 -50.37091736 189.24969147 -50.71090698 188.25947571 C-52.3667537 183.44101427 -54.03298187 178.62665633 -55.72021484 173.8190918 C-68.47373582 137.20956166 -70.63390646 100.68894331 -53.671875 64.93359375 C-48.69305496 54.95018749 -42.82614025 45.8079229 -36 37 C-35.28328125 36.071875 -34.5665625 35.14375 -33.828125 34.1875 C-25.49312085 23.72311522 -16.40667098 13.44804583 -6 5 C-4.83300238 4.0212278 -3.66630966 3.04209187 -2.5 2.0625 C-1.675 1.381875 -0.85 0.70125 0 0 Z M-90 442 C-89 444 -89 444 -89 444 Z " fill="#DA6F2F" transform="translate(471,351)"/>
<path d="M0 0 C-1.12057485 3.7692063 -2.5737659 7.17722549 -4.3125 10.6875 C-15.3099458 34.67302719 -14.82944997 59.43270949 -5.96484375 83.88671875 C-0.61810041 98.03336529 6.65080955 110.82017369 14.34765625 123.8125 C19.51186486 132.53026386 24.48687538 141.3525538 29.4296875 150.19726562 C30.46643807 152.04768486 31.50801539 153.89540903 32.5546875 155.74023438 C61.76397527 207.22716421 75.7021294 262.63487775 59.7890625 320.984375 C49.30841052 357.25901039 30.45608949 387.62026999 6 416 C5.41992188 416.68191406 4.83984375 417.36382813 4.2421875 418.06640625 C-3.61941646 427.2119405 -11.72672084 436.61112587 -21.015625 444.33203125 C-23.56532188 446.47518197 -25.99129572 448.73962616 -28.4375 451 C-30.28986971 452.66866362 -32.14396288 454.33541657 -34 456 C-34.77601563 456.72445313 -35.55203125 457.44890625 -36.3515625 458.1953125 C-37.08117187 458.83210938 -37.81078125 459.46890625 -38.5625 460.125 C-39.18253906 460.68445313 -39.80257812 461.24390625 -40.44140625 461.8203125 C-47.62201879 465.13106821 -57.3131893 462.64368953 -64.875 461.625 C-65.89335938 461.49867188 -66.91171875 461.37234375 -67.9609375 461.2421875 C-68.940625 461.11328125 -69.9203125 460.984375 -70.9296875 460.8515625 C-71.80866699 460.73635254 -72.68764648 460.62114258 -73.59326172 460.50244141 C-76.01541828 459.99678121 -77.85193893 459.2083233 -80 458 C-79.16597656 457.18917969 -78.33195313 456.37835937 -77.47265625 455.54296875 C-44.02260181 422.75124251 -14.67046651 373.36987039 -12.90234375 325.34765625 C-12.91394531 324.59355469 -12.92554688 323.83945312 -12.9375 323.0625 C-12.94652344 322.29035156 -12.95554687 321.51820313 -12.96484375 320.72265625 C-12.97644531 320.15417969 -12.98804688 319.58570313 -13 319 C-13.47566406 319.94746094 -13.47566406 319.94746094 -13.9609375 320.9140625 C-20.13026671 332.74145055 -27.81207607 343.12920053 -36.96875 352.79296875 C-39.12964179 355.02620654 -39.12964179 355.02620654 -41 358 C-41.66 358 -42.32 358 -43 358 C-43 358.66 -43 359.32 -43 360 C-45.46282167 362.54750321 -48.2840756 364.72802478 -51 367 C-51.763125 367.67289063 -52.52625 368.34578125 -53.3125 369.0390625 C-65.56199774 379.56597462 -79.43814242 387.49713721 -93.9375 394.5 C-95.46334717 395.23827026 -95.46334717 395.23827026 -97.02001953 395.99145508 C-115.68409954 404.77196682 -115.68409954 404.77196682 -121 403 C-120.56171875 402.48695313 -120.1234375 401.97390625 -119.671875 401.4453125 C-93.93937156 370.37802177 -80.15981978 334.48396491 -82 294 C-82.30656584 292.66025888 -82.63347883 291.3245947 -83 290 C-83.66644531 291.01578125 -84.33289063 292.0315625 -85.01953125 293.078125 C-91.04539504 302.13016919 -97.40887602 310.22623243 -105 318 C-105.70253906 318.76441406 -106.40507813 319.52882813 -107.12890625 320.31640625 C-116.94646738 330.73010013 -128.84917458 338.58643636 -141.1875 345.6875 C-142.08436523 346.20481689 -142.98123047 346.72213379 -143.90527344 347.25512695 C-147.98455574 349.54266533 -151.34068718 351.25157576 -156 352 C-153.32773491 347.87568219 -150.47722583 344.06967871 -147.375 340.25 C-126.71668411 313.87579189 -117.75497427 281.31972132 -121.61547852 248.11938477 C-124.81795031 225.79920036 -134.42916584 204.97615569 -143.86328125 184.7109375 C-144.67079834 182.95861816 -144.67079834 182.95861816 -145.49462891 181.17089844 C-146.4048662 179.25358381 -147.35494316 177.35357283 -148.37646484 175.49316406 C-150.60904401 171.27472021 -151.21908187 168.62791779 -150.24365234 163.90380859 C-150.04658188 162.93253021 -149.84951141 161.96125183 -149.64646912 160.96054077 C-149.3264669 159.49507309 -149.3264669 159.49507309 -149 158 C-148.8111171 157.12832184 -148.62223419 156.25664368 -148.42762756 155.35855103 C-147.82378176 152.65090879 -147.19506941 149.95015389 -146.55859375 147.25 C-146.31890366 146.22598083 -146.07921356 145.20196167 -145.83226013 144.14691162 C-145.0380529 140.76364023 -144.23838454 137.38169664 -143.4375 134 C-143.1610968 132.82957153 -142.8846936 131.65914307 -142.59991455 130.45324707 C-137.56423576 109.16653098 -132.26576082 87.94924673 -126.875 66.75 C-126.59572222 65.65132599 -126.59572222 65.65132599 -126.31080246 64.53045654 C-125.06184656 59.61847365 -123.80948283 54.7073692 -122.5546875 49.796875 C-122.23954697 48.56257751 -121.92440643 47.32828003 -121.59971619 46.05657959 C-119.79600881 39.01986098 -117.93615125 32.0014628 -116 25 C-115.67 25 -115.34 25 -115 25 C-114.78085937 26.24652344 -114.56171875 27.49304688 -114.3359375 28.77734375 C-107.83800497 64.30687208 -89.39191498 91.84622299 -68.87231445 120.98925781 C-44.67351633 155.49643124 -26.48775479 192.28257375 -26.6875 235.1875 C-26.68923721 236.34329056 -26.68923721 236.34329056 -26.69100952 237.52243042 C-26.73567455 252.54411811 -27.93880771 266.71379765 -33 281 C-15.94904767 267.04489097 -3.39534871 249.20420388 -0.38671875 226.94140625 C2.82681975 194.18928157 -10.0979373 165.60071531 -23.6875 136.6875 C-37.20442935 107.8521673 -47.7234277 77.63942035 -37 46 C-36.49146484 44.45699219 -36.49146484 44.45699219 -35.97265625 42.8828125 C-31.63719291 31.24957635 -14.20438622 0 0 0 Z " fill="#D6682D" transform="translate(812,563)"/>
<path d="M0 0 C8.55971325 3.96135566 15.81454758 10.51854713 22.6796875 16.8671875 C24.68036832 18.70619714 26.72504881 20.44941303 28.8125 22.1875 C43.74045193 35.24568826 55.34138532 51.4155867 66 68 C66.60972656 68.804375 67.21945312 69.60875 67.84765625 70.4375 C70.22302785 75.71968227 67.69618089 82.71004361 66.33618164 88.12182617 C66.16947527 88.79109949 66.0027689 89.46037281 65.83101082 90.14992714 C65.46877045 91.60173331 65.10439299 93.05300761 64.73808861 94.50379372 C64.14382489 96.85765686 63.55528694 99.21289084 62.96809387 101.56852722 C62.11649037 104.98316925 61.26272961 108.39726116 60.40740967 111.81097412 C58.10129045 121.02186253 55.82075656 130.23910213 53.54296875 139.45703125 C53.30955528 140.40155655 53.07614182 141.34608185 52.83565521 142.31922913 C31.86235201 227.2503194 13.61131727 312.74181378 -3.37890625 398.55078125 C-3.55854542 399.45730879 -3.73818459 400.36383633 -3.92326736 401.2978344 C-4.42594976 403.83676593 -4.92725737 406.37596424 -5.42797852 408.9152832 C-5.57381347 409.65183828 -5.71964842 410.38839336 -5.86990261 411.1472683 C-6.64502202 415.08887499 -7.36131036 419.0339821 -8 423 C-24.20647449 415.59834174 -36.35667597 391.15545952 -42.72265625 375.4609375 C-53.20730997 347.05297664 -51.78537121 319.19410081 -42 291 C-41.67 290.01773437 -41.34 289.03546875 -41 288.0234375 C-39.22945565 283.13968601 -37.16684616 279.55505487 -33.62109375 275.76171875 C-31.85725989 273.84487762 -30.31565583 271.83140128 -28.75 269.75 C-25.26468125 265.22062101 -21.4491876 261.05649944 -17.5703125 256.86328125 C-14.14382757 253.04623953 -10.97560999 249.0581449 -7.8125 245.01953125 C-7.214375 244.35308594 -6.61625 243.68664062 -6 243 C-5.34 243 -4.68 243 -4 243 C-3.88140625 242.40453369 -3.7628125 241.80906738 -3.640625 241.19555664 C-2.62822624 237.72585313 -0.24068824 235.20412757 2 232.4375 C5.59976532 228.07828376 5.59976532 228.07828376 8 223 C8.66 223 9.32 223 10 223 C10.226875 222.154375 10.45375 221.30875 10.6875 220.4375 C11.95409674 217.12022281 13.60166777 214.75716611 15.6784668 211.91137695 C17.77388285 208.88070777 19.42946018 205.67235927 21.0625 202.375 C21.40829102 201.67914795 21.75408203 200.9832959 22.11035156 200.26635742 C24.65445089 195.00819179 26.5790964 189.73422658 28.140625 184.09765625 C28.69264466 182.10787631 29.30306643 180.13289326 29.984375 178.18359375 C40.29090189 148.41358724 40.08621695 112.79333571 31.90234375 82.62109375 C31.01450834 79.05822179 30.45407761 75.63730207 30 72 C29.34 72 28.68 72 28 72 C28 82.89 28 93.78 28 105 C27.34 105 26.68 105 26 105 C26.01571045 104.22624023 26.0314209 103.45248047 26.04760742 102.65527344 C26.42998416 80.87431991 25.5718844 60.6134089 18 40 C17.72027344 39.22688477 17.44054687 38.45376953 17.15234375 37.65722656 C12.99872834 26.32468927 7.99087273 15.84988766 1.90625 5.4296875 C0 2 0 2 0 0 Z " fill="#CD954B" transform="translate(517,454)"/>
<path d="M0 0 C4.62 0.99 9.24 1.98 14 3 C15.1234159 8.61707949 15.1234159 8.61707949 14.06640625 11.95703125 C13.8336499 12.72362061 13.60089355 13.49020996 13.36108398 14.2800293 C13.09755127 15.11574463 12.83401855 15.95145996 12.5625 16.8125 C9.53844126 26.85440132 6.94361821 36.97820806 4.4548645 47.1625061 C2.60329626 54.73931353 0.66535811 62.27193148 -1.45703125 69.77734375 C-3.88581248 78.39628795 -5.98895164 87.07481942 -8.02261353 95.79434204 C-12.22278225 113.78810402 -16.63517529 131.7247058 -21.15673828 149.64013672 C-25.35353858 166.28374387 -29.44137747 182.94313921 -32.9375 199.75 C-34.80902565 208.61748118 -36.7854679 217.44642686 -38.9375 226.25 C-41.38630785 236.2775357 -43.6402246 246.3410608 -45.8187561 256.43008423 C-47.41285989 263.81216467 -49.02765844 271.18524581 -50.765625 278.53515625 C-57.07039677 305.25594065 -62.32432932 332.18747543 -67.64547729 359.11723328 C-69.27436161 367.35812633 -70.92066544 375.59528522 -72.58984375 383.828125 C-76.83386399 404.77867269 -80.8548586 425.75103476 -84.5508728 446.80522156 C-85.62425056 452.90722131 -86.72187637 459.00458163 -87.82911682 465.1005249 C-88.70882419 469.94504641 -89.5833398 474.79050234 -90.45840454 479.63586426 C-91.11958615 483.2826397 -91.78860172 486.9279239 -92.45776367 490.57324219 C-94.35173479 500.99015005 -96.1604614 511.35647289 -97.2578125 521.890625 C-97.3479361 522.69569992 -97.43805969 523.50077484 -97.53091431 524.33024597 C-97.93382728 527.93537924 -98.28110232 531.52282417 -98.50048828 535.14379883 C-99.39291181 543.61623777 -99.39291181 543.61623777 -102.4621582 546.25897217 C-106.60329589 548.95950791 -111.97842368 552 -117 552 C-114.87016044 535.24281405 -112.18467365 518.59204585 -109.34863281 501.94262695 C-108.74656956 498.40772367 -108.15108185 494.87174923 -107.55731964 491.3354435 C-105.14655673 476.99501316 -102.60475425 462.69765643 -99.68881226 448.44944763 C-98.09507434 440.62065651 -96.76826721 432.77742188 -95.5743103 424.87918091 C-92.60421062 405.37970928 -88.72080247 386.08623394 -84.77349854 366.76556396 C-83.36513416 359.85252844 -82.00414361 352.93123549 -80.66796875 346.00390625 C-80.47744431 345.01668579 -80.28691986 344.02946533 -80.09062195 343.0123291 C-79.70845451 341.0317588 -79.32628796 339.05118832 -78.94412231 337.07061768 C-75.99304026 321.79664364 -72.88807628 306.58535188 -69.38012695 291.42919922 C-67.63735956 283.89194626 -66.03528737 276.3444065 -64.5625 268.75 C-62.3245118 257.25479368 -59.72507811 245.85522763 -57.08666992 234.44702148 C-54.92430609 225.08984999 -52.83510112 215.72034706 -50.81069946 206.33239746 C-48.48686236 195.55911663 -46.03291276 184.8353216 -43.2875824 174.16035461 C-41.44373013 166.92749513 -39.79943199 159.66456222 -38.21484375 152.37109375 C-35.26782332 138.97283423 -31.99381665 125.67238923 -28.625 112.375 C-27.39742023 107.50709293 -26.17293183 102.63841165 -24.94921875 97.76953125 C-24.63253738 96.51045456 -24.31585602 95.25137787 -23.98957825 93.95414734 C-21.52637857 84.1486923 -19.10970099 74.3321613 -16.70703125 64.51171875 C-16.34648181 63.03936133 -15.98590652 61.56701024 -15.62530518 60.09466553 C-13.51622748 51.48076507 -13.51622748 51.48076507 -11.41607666 42.86468506 C-7.9160569 28.47525371 -4.35210088 14.15894625 0 0 Z " fill="#5D5B5A" transform="translate(640,487)"/>
<path d="M0 0 C-1.12057485 3.7692063 -2.5737659 7.17722549 -4.3125 10.6875 C-12.91476287 29.44911189 -15.15002755 50.31974563 -10.4296875 70.4296875 C-10.04101291 72.75466824 -9.99986162 74.69942594 -10.0546875 77.04296875 C-10.12020906 82.9095753 -9.11138934 88.54457084 -8.125 94.3125 C-7.95097656 95.36373047 -7.77695312 96.41496094 -7.59765625 97.49804688 C-7.24716246 99.61009648 -6.8928553 101.72151693 -6.53466797 103.83227539 C-6.17238035 105.97870544 -5.81746022 108.12638969 -5.46923828 110.27514648 C-5.21376221 111.84824585 -5.21376221 111.84824585 -4.953125 113.453125 C-4.80262695 114.38930664 -4.65212891 115.32548828 -4.49707031 116.29003906 C-3.99148065 119.04644636 -3.34062319 121.72866868 -2.625 124.4375 C-0.53276557 132.56462169 0.99255489 140.78786778 2.46630859 149.04589844 C2.82293429 151.0199016 3.1905094 152.99195708 3.56884766 154.96191406 C8.36716073 180.0889581 12.2922285 212.47404046 0 236 C-0.69907414 238.73572585 -0.69907414 238.73572585 -1 241 C-1.66 241 -2.32 241 -3 241 C-2.7834375 239.86304688 -2.566875 238.72609375 -2.34375 237.5546875 C4.46734448 200.41906435 -8.12343174 169.80168231 -23.6875 136.6875 C-37.20442935 107.8521673 -47.7234277 77.63942035 -37 46 C-36.66097656 44.97132813 -36.32195313 43.94265625 -35.97265625 42.8828125 C-31.63719291 31.24957635 -14.20438622 0 0 0 Z " fill="#D19C50" transform="translate(812,563)"/>
<path d="M0 0 C0.99 0.495 0.99 0.495 2 1 C1.23816406 1.88300781 0.47632813 2.76601563 -0.30859375 3.67578125 C-5.07815987 9.21555893 -9.83704807 14.75559855 -14.4375 20.4375 C-19.59186792 26.78276881 -24.97362765 32.92509448 -30.34033203 39.09033203 C-37.23827571 47.02733048 -44.0588118 55.01567814 -50.6875 63.1796875 C-55.05765205 68.50950132 -59.53456492 73.7499838 -64 79 C-66.80112214 77.69444752 -69.11093116 76.24569647 -71.49609375 74.28515625 C-72.45805664 73.50301758 -72.45805664 73.50301758 -73.43945312 72.70507812 C-74.09880859 72.16302734 -74.75816406 71.62097656 -75.4375 71.0625 C-81.32938512 65.89655622 -81.32938512 65.89655622 -88 62 C-92.14079925 63.1229836 -95.77133357 64.80095988 -99.53515625 66.8359375 C-100.58034424 67.39909668 -101.62553223 67.96225586 -102.70239258 68.54248047 C-103.81122803 69.14721191 -104.92006348 69.75194336 -106.0625 70.375 C-107.23520446 71.01070068 -108.40797557 71.64627842 -109.58081055 72.28173828 C-117.3734575 76.5152812 -125.09428473 80.86717462 -132.77758789 85.29589844 C-139.99105313 89.44624353 -147.25159812 93.50803166 -154.53353882 97.53668213 C-155.83346703 98.25611413 -157.13281482 98.97659601 -158.43154907 99.69818115 C-160.25477612 100.71070156 -162.08016783 101.71920243 -163.90625 102.7265625 C-165.48889648 103.60175537 -165.48889648 103.60175537 -167.10351562 104.49462891 C-169.69600041 105.84200426 -172.26701326 106.97418539 -175 108 C-173.84960919 106.84960919 -172.69888266 105.69955293 -171.546875 104.55078125 C-170.48959702 103.49083338 -169.43774005 102.42545767 -168.390625 101.35546875 C-165.51580401 98.43449237 -162.60603016 95.61232424 -159.5 92.9375 C-155.3948822 89.40164659 -151.45023672 85.70646063 -147.5 82 C-142.41297458 77.23466413 -137.30469638 72.52345928 -132 68 C-130.30036187 66.54631963 -128.60131123 65.09195632 -126.90258789 63.63720703 C-125.7231279 62.62785093 -124.54271212 61.61961 -123.36108398 60.61279297 C-122.79977783 60.13342285 -122.23847168 59.65405273 -121.66015625 59.16015625 C-121.07065186 58.66104736 -120.48114746 58.16193848 -119.8737793 57.64770508 C-118.55720881 56.48998075 -117.27724224 55.28993946 -116.02661133 54.0612793 C-109.8886522 48.16131835 -103.35692259 44.98324004 -95.5625 41.6875 C-94.27128432 41.12696573 -92.98068593 40.56500762 -91.69067383 40.00170898 C-87.80359208 38.31111168 -83.90309528 36.65321128 -80 35 C-78.88786133 34.5265918 -77.77572266 34.05318359 -76.62988281 33.56542969 C-72.434284 31.7809171 -68.23605838 30.00292211 -64.0324707 28.23730469 C-55.23956928 24.54302093 -46.48821813 20.75885342 -37.75 16.9375 C-36.73524094 16.49434448 -36.73524094 16.49434448 -35.69998169 16.04223633 C-28.82215871 13.03643646 -21.96200429 10.00106016 -15.1484375 6.8515625 C-14.12137695 6.37726807 -13.09431641 5.90297363 -12.03613281 5.41430664 C-10.14392713 4.53564655 -8.25503648 3.6497993 -6.37011719 2.75561523 C-5.54930664 2.37348877 -4.72849609 1.9913623 -3.8828125 1.59765625 C-3.17527832 1.26258057 -2.46774414 0.92750488 -1.73876953 0.58227539 C-0.87807861 0.29404907 -0.87807861 0.29404907 0 0 Z " fill="#5A5857" transform="translate(629,1012)"/>
<path d="M0 0 C4.06906151 1.42530545 8.06511639 3.0109145 12.0625 4.625 C13.11888672 5.04523438 14.17527344 5.46546875 15.26367188 5.8984375 C17.84492694 6.92626757 20.42354309 7.96021446 23 9 C23 9.66 23 10.32 23 11 C20.91826819 11.52527669 18.83639452 12.04999602 16.75390625 12.57226562 C14.93634756 13.02995275 13.1199595 13.49231034 11.3046875 13.95898438 C7.08107897 15.03403118 2.89271291 16.06287267 -1.41015625 16.765625 C-13.24735687 18.80091095 -21.77077726 24.34743384 -31.48583984 31.22558594 C-33.93581483 32.95470015 -36.40845523 34.64362174 -38.89453125 36.3203125 C-47.50815307 42.13747383 -56.02585902 48.08905898 -64.4831543 54.13110352 C-65.13582275 54.59572998 -65.78849121 55.06035645 -66.4609375 55.5390625 C-67.02603027 55.94334473 -67.59112305 56.34762695 -68.17333984 56.76416016 C-72.47188864 59.67237373 -76.18193643 61.5108408 -81.25 62.76171875 C-83.10189941 63.22747314 -83.10189941 63.22747314 -84.99121094 63.70263672 C-85.64440308 63.86310486 -86.29759521 64.023573 -86.97058105 64.18890381 C-90.44802157 65.04325604 -93.91908798 65.92280272 -97.390625 66.80078125 C-98.10301331 66.98032349 -98.81540161 67.15986572 -99.54937744 67.34484863 C-104.42036886 68.57912078 -109.26980106 69.87845169 -114.109375 71.23046875 C-114.75708862 71.4113353 -115.40480225 71.59220184 -116.07214355 71.77854919 C-119.14793434 72.63998927 -122.22131358 73.5094244 -125.29296875 74.38549805 C-132.1516521 76.31475052 -138.96304625 77.87557483 -146 79 C-142.6843349 76.30330004 -139.09619928 74.42631739 -135.27734375 72.55859375 C-134.62404587 72.2348175 -133.97074799 71.91104126 -133.2976532 71.57745361 C-131.9018917 70.88590705 -130.50530603 70.19602185 -129.10797119 69.50765991 C-125.45866655 67.70835497 -121.81757626 65.89256832 -118.17578125 64.078125 C-117.10212311 63.54362984 -117.10212311 63.54362984 -116.0067749 62.99833679 C-93.90346168 51.98680466 -73.31183336 39.30121465 -52.67578125 25.75439453 C-42.19056977 18.87969292 -31.63528561 12.1140083 -21.0625 5.375 C-20.09562256 4.75810303 -19.12874512 4.14120605 -18.13256836 3.50561523 C-17.23417236 2.93399658 -16.33577637 2.36237793 -15.41015625 1.7734375 C-14.60715088 1.26216309 -13.80414551 0.75088867 -12.97680664 0.22412109 C-8.34099217 -2.64656851 -5.05405918 -1.4466362 0 0 Z " fill="#5A5857" transform="translate(459,1059)"/>
<path d="M0 0 C1.88671875 1.3125 1.88671875 1.3125 3.6875 3 C4.38101563 3.63808594 5.07453125 4.27617188 5.7890625 4.93359375 C6.51867187 5.61550781 7.24828125 6.29742188 8 7 C9.51946274 8.35570439 11.0403772 9.70978289 12.5625 11.0625 C17.5544351 15.56292149 22.46184611 20.15116484 27.36767578 24.74487305 C32.86225691 29.88543995 38.41357352 34.95944056 44 40 C43.01 40.495 43.01 40.495 42 41 C39.1853921 39.90717791 36.47752915 38.74477329 33.73828125 37.484375 C32.91426315 37.11274231 32.09024506 36.74110962 31.24125671 36.35821533 C28.59493744 35.16282807 25.95368929 33.9566737 23.3125 32.75 C21.55046279 31.95108899 19.7880967 31.1529029 18.02539062 30.35546875 C15.5275273 29.22544895 13.03017341 28.09445326 10.53547668 26.9574585 C9.04391096 26.27805833 7.54948499 25.60489326 6.0519104 24.93884277 C4.17461582 24.07989472 2.33673188 23.13612756 0.50463867 22.18457031 C-4.06475238 20.64011296 -7.33330477 21.13133207 -12 22 C-12.77320587 22.13279358 -13.54641174 22.26558716 -14.3430481 22.40240479 C-16.84029076 22.84708216 -19.32796069 23.32885746 -21.81640625 23.8203125 C-22.73891678 23.99988495 -23.66142731 24.1794574 -24.6118927 24.36447144 C-27.59626269 24.94714493 -30.57942099 25.53575572 -33.5625 26.125 C-34.58023499 26.32464355 -35.59796997 26.52428711 -36.64654541 26.72998047 C-51.2248359 29.59072555 -65.76367376 32.59322479 -80.25219727 35.87939453 C-86.16653522 37.21303161 -91.96427489 38.40092058 -98 39 C-95.07140045 36.62507879 -92.26709382 35.12717979 -88.77734375 33.71484375 C-87.70258789 33.27551514 -86.62783203 32.83618652 -85.52050781 32.38354492 C-83.74691895 31.66775269 -83.74691895 31.66775269 -81.9375 30.9375 C-79.32569944 29.87253519 -76.71569291 28.80319668 -74.10546875 27.734375 C-73.39991852 27.4461235 -72.69436829 27.15787201 -71.96743774 26.86088562 C-62.20211359 22.86605338 -52.47888197 18.77005144 -42.75 14.6875 C-40.93875367 13.92757442 -39.12747498 13.16772595 -37.31616211 12.40795898 C-36.43983627 12.04029922 -35.56351044 11.67263947 -34.66062927 11.2938385 C-32.93346765 10.57051679 -31.20558387 9.8489168 -29.47694397 9.12913513 C-25.33714087 7.40516815 -21.208974 5.66116742 -17.09960938 3.86572266 C-16.32546692 3.53288773 -15.55132446 3.2000528 -14.75372314 2.85713196 C-13.30702031 2.2349085 -11.86453914 1.60273392 -10.4274292 0.95866394 C-6.56245328 -0.68749254 -4.02249241 -1.42860425 0 0 Z " fill="#595756" transform="translate(627,1105)"/>
<path d="M0 0 C4.33769533 0.11989186 8.67523658 0.24420989 13.01269531 0.37231445 C14.48271396 0.41514455 15.95276601 0.45684581 17.42285156 0.49731445 C20.96117334 0.59506482 24.49822061 0.70506709 28.03515625 0.84472656 C30.52135631 0.94209253 33.00847704 1.02000052 35.49609375 1.06933594 C41.17077305 1.30372487 44.9470005 1.7137681 49.06591797 5.79443359 C49.53916504 6.31602051 50.01241211 6.83760742 50.5 7.375 C51.59564998 8.47986542 52.69201983 9.58401739 53.7890625 10.6875 C54.32563477 11.24566406 54.86220703 11.80382813 55.41503906 12.37890625 C57.80566913 14.8240362 60.33399495 17.08605175 62.875 19.375 C66.21319352 22.42946924 69.53726669 25.49690213 72.83984375 28.58984375 C73.49936035 29.20746582 74.15887695 29.82508789 74.83837891 30.46142578 C76.11409665 31.6576281 77.38859757 32.85513006 78.66162109 34.05419922 C82.67942189 37.82286795 86.79498472 41.44108182 91 45 C90.01 45.495 90.01 45.495 89 46 C86.7282841 45.04855013 84.588352 44.03710006 82.40234375 42.9140625 C81.74065689 42.58175629 81.07897003 42.24945007 80.39723206 41.90707397 C78.23992373 40.82089419 76.08870378 39.72321357 73.9375 38.625 C72.46120111 37.87838479 70.98463828 37.13229122 69.5078125 36.38671875 C61.47246764 32.32112346 53.46904288 28.19844175 45.53125 23.94506836 C39.22940351 20.56850148 32.83873415 17.38261534 26.43310547 14.20849609 C21.28300486 11.6504991 16.14261404 9.0730045 11 6.5 C8.89586466 5.44785401 6.79170054 4.39576558 4.6875 3.34375 C3.125 2.5625 1.5625 1.78125 0 1 C0 0.67 0 0.34 0 0 Z " fill="#5A5856" transform="translate(719,1070)"/>
<path d="M0 0 C2.89140954 2.49394992 5.51161424 5.10565403 8 8 C4.5613802 9.1462066 3.27681395 8.80657735 -0.19921875 8.00390625 C-1.2365918 7.77429199 -2.27396484 7.54467773 -3.34277344 7.30810547 C-4.4465332 7.06205566 -5.55029297 6.81600586 -6.6875 6.5625 C-21.24857089 3.26770929 -21.24857089 3.26770929 -36 4 C-40.04017746 7.3187172 -41.63254157 9.98598576 -43 15 C-44 16 -44 16 -47 16.25 C-51.63205912 16.21147976 -55.71458195 14.63254021 -60 13 C-56.47869177 -3.24603568 -56.47869177 -3.24603568 -50 -8.375 C-34.82928405 -16.59247114 -13.07320095 -8.79181573 0 0 Z " fill="#5C5B59" transform="translate(794,87)"/>
<path d="M0 0 C1.5572965 4.9833488 2.63280843 9.77949384 3 15 C3.15082031 16.82144531 3.15082031 16.82144531 3.3046875 18.6796875 C3.86927453 28.29152194 2.35173398 34.51519512 -4 42 C-4.44972168 42.53737793 -4.89944336 43.07475586 -5.36279297 43.62841797 C-8.42264663 47.25043319 -11.49514269 50.80209675 -15 54 C-15.99 54 -16.98 54 -18 54 C-21.74166761 43.7727752 -23.63773691 29.18145145 -19.7890625 18.703125 C-18.05328541 15.88350588 -16.18528465 13.48696996 -14 11 C-13.14875377 9.96565427 -12.29853543 8.93046195 -11.44921875 7.89453125 C-4.75764017 0 -4.75764017 0 0 0 Z " fill="#5D5B57" transform="translate(735,224)"/>
<path d="M0 0 C2.97 0.33 5.94 0.66 9 1 C8.38627074 7.87800037 7.10103248 14.3664323 5.4375 21.0625 C5.20353516 22.02349609 4.96957031 22.98449219 4.72851562 23.97460938 C4.15732057 26.31767482 3.58107577 28.65936918 3 31 C6.33312064 32.00070994 9.66650341 33.00054312 13 34 C14.10166504 34.33064453 14.10166504 34.33064453 15.22558594 34.66796875 C24.1026111 37.32641978 32.97966676 39.86223316 42 42 C42.04254356 43.99954746 42.04080783 46.00041636 42 48 C41 49 41 49 37.82421875 49.296875 C31.2669895 49.20930906 25.06319856 47.0569677 18.8125 45.25 C16.9552832 44.72792969 16.9552832 44.72792969 15.06054688 44.1953125 C7.0031447 41.91611021 -1.00746199 39.49646064 -9 37 C-7.82322529 29.66687987 -6.12135902 22.65151654 -4.01953125 15.52734375 C-2.53383729 10.38718418 -1.25715018 5.20003029 0 0 Z " fill="#585754" transform="translate(646,434)"/>
<path d="M0 0 C4.80625313 1.11781278 9.61172716 2.23889519 14.41650391 3.36303711 C16.05170952 3.74512637 17.68712571 4.12631558 19.32275391 4.5065918 C21.67145617 5.05281819 24.01938628 5.60225916 26.3671875 6.15234375 C27.46726639 6.40708717 27.46726639 6.40708717 28.58956909 6.66697693 C33.77225659 7.88612829 33.77225659 7.88612829 36 9 C36.25713775 10.99281757 36.50836152 12.98829861 36.65625 14.9921875 C36.91308355 17.30982249 36.91308355 17.30982249 39 20 C31.83010206 19.28740892 24.94435834 17.71233621 17.9375 16.0625 C16.21950195 15.66514648 16.21950195 15.66514648 14.46679688 15.25976562 C8.93395904 13.97015681 3.44137788 12.63478261 -2 11 C-1.34 7.37 -0.68 3.74 0 0 Z " fill="#6A5F50" transform="translate(649,390)"/>
<path d="M0 0 C4.86376277 1.13166757 9.72415413 2.27654383 14.58251953 3.43115234 C16.92620502 3.9826356 19.27314816 4.51777495 21.62109375 5.05078125 C23.06001561 5.38750941 24.4988225 5.72472931 25.9375 6.0625 C26.95650391 6.28728027 26.95650391 6.28728027 27.99609375 6.51660156 C32.77295021 7.65942532 32.77295021 7.65942532 35 11 C34.96856707 13.73990408 34.44521663 16.28417854 34 19 C27.05679417 18.30231709 20.40071564 16.83443209 13.625 15.1875 C12.53316406 14.93935547 11.44132813 14.69121094 10.31640625 14.43554688 C9.27613281 14.18224609 8.23585938 13.92894531 7.1640625 13.66796875 C6.21998535 13.44391357 5.2759082 13.2198584 4.30322266 12.98901367 C2 12 2 12 0.68505859 10.16137695 C-0.41353237 6.69529505 -0.12071445 3.62143357 0 0 Z " fill="#34302D" transform="translate(685,399)"/>
<path d="M0 0 C2.09765625 1.48828125 2.09765625 1.48828125 4.0625 3.3125 C4.74441406 3.9415625 5.42632813 4.570625 6.12890625 5.21875 C6.74636719 5.8065625 7.36382813 6.394375 8 7 C9.2375 8.1446875 9.2375 8.1446875 10.5 9.3125 C12 11 12 11 12 13 C10.41701974 13.4803318 8.83360022 13.95921612 7.25 14.4375 C6.36828125 14.70433594 5.4865625 14.97117187 4.578125 15.24609375 C-4.14270941 17.79627715 -4.14270941 17.79627715 -9 17 C-14.02687004 13.13507861 -17.96129127 9.07297891 -20 3 C-17.60743751 2.29878357 -15.21209511 1.61385099 -12.8125 0.9375 C-12.13896484 0.73833984 -11.46542969 0.53917969 -10.77148438 0.33398438 C-6.8368027 -0.76004907 -3.88393985 -1.41964698 0 0 Z " fill="#5B5855" transform="translate(706,329)"/>
<path d="M0 0 C1.68723638 1.51703939 3.22181405 3.10195735 4.75048828 4.77832031 C5.29125 5.33390625 5.83201172 5.88949219 6.38916016 6.46191406 C10.31298828 10.57920527 10.31298828 10.57920527 10.31298828 12.90332031 C8.13109909 13.60842459 5.94213135 14.2916444 3.75048828 14.96582031 C2.53232422 15.34867188 1.31416016 15.73152344 0.05908203 16.12597656 C-4.05587209 16.97986172 -6.63796899 17.01528222 -10.68701172 15.90332031 C-13.52294922 13.72363281 -13.52294922 13.72363281 -16.06201172 11.02832031 C-17.34205078 9.701875 -17.34205078 9.701875 -18.64794922 8.34863281 C-20.68701172 5.90332031 -20.68701172 5.90332031 -21.68701172 2.90332031 C-20.27099458 2.42223757 -18.85416735 1.9435389 -17.43701172 1.46582031 C-16.64810547 1.19898438 -15.85919922 0.93214844 -15.04638672 0.65722656 C-14.26779297 0.4084375 -13.48919922 0.15964844 -12.68701172 -0.09667969 C-12.07341797 -0.29390625 -11.45982422 -0.49113281 -10.82763672 -0.69433594 C-3.2569981 -2.11728444 -3.2569981 -2.11728444 0 0 Z " fill="#5C5A57" transform="translate(755.68701171875,158.0966796875)"/>
<path d="M0 0 C2.16015625 1.609375 2.16015625 1.609375 4.0625 3.75 C6.32226936 6.20495098 8.37046437 8.2932843 11 10.375 C11.66 10.91125 12.32 11.4475 13 12 C13 12.66 13 13.32 13 14 C8.2333391 16.22444175 3.1793864 17.23927762 -2 18 C-2.79792969 18.13921875 -3.59585938 18.2784375 -4.41796875 18.421875 C-8.50209335 17.75457476 -10.55176512 15.05681323 -13.3125 12.125 C-13.86228516 11.56941406 -14.41207031 11.01382813 -14.97851562 10.44140625 C-19 6.29503106 -19 6.29503106 -19 4 C-16.96185767 3.32263519 -14.91929445 2.65856466 -12.875 2 C-11.73804688 1.62875 -10.60109375 1.2575 -9.4296875 0.875 C-6.02178868 0.00555884 -3.48717166 -0.44373415 0 0 Z " fill="#565452" transform="translate(763,122)"/>
<path d="M0 0 C2.33902985 1.74170491 4.01493793 3.20379776 5.9375 5.3125 C6.43056641 5.81201172 6.92363281 6.31152344 7.43164062 6.82617188 C11 10.5628034 11 10.5628034 11 14 C8.586238 14.69951063 6.16989766 15.38483919 3.75 16.0625 C3.06808594 16.26166016 2.38617187 16.46082031 1.68359375 16.66601562 C-4.79063616 18.45742876 -4.79063616 18.45742876 -8 17 C-10.3125 14.875 -10.3125 14.875 -13 12 C-14.87838622 10.18031335 -16.75944113 8.3635225 -18.64453125 6.55078125 C-20 5 -20 5 -20 3 C-17.98164215 2.49009907 -15.96016125 1.99255336 -13.9375 1.5 C-12.81214844 1.2215625 -11.68679688 0.943125 -10.52734375 0.65625 C-6.77749187 -0.04139686 -3.79628457 -0.47022161 0 0 Z " fill="#585652" transform="translate(744,192)"/>
<path d="M0 0 C3.34888624 3.34888624 6.44997815 6.87864841 9.5 10.5 C8.5 12.5 8.5 12.5 5.26171875 13.60546875 C3.90595669 13.97473728 2.54772782 14.33503685 1.1875 14.6875 C0.51009766 14.87763672 -0.16730469 15.06777344 -0.86523438 15.26367188 C-7.49262942 17.01931611 -7.49262942 17.01931611 -10.5 15.5 C-12.53451152 13.75532113 -14.38569023 12.03334858 -16.25 10.125 C-16.75660156 9.63 -17.26320313 9.135 -17.78515625 8.625 C-21.5 4.88011708 -21.5 4.88011708 -21.5 1.5 C-5.05905512 -3.03543307 -5.05905512 -3.03543307 0 0 Z " fill="#5B5855" transform="translate(717.5,295.5)"/>
<path d="M0 0 C2.38913211 -0.36909348 3.53495475 -0.31501852 5.80859375 0.5859375 C9.89243325 3.91391323 13.47651941 7.50659649 16.80859375 11.5859375 C16.80859375 12.2459375 16.80859375 12.9059375 16.80859375 13.5859375 C14.77045142 14.26330231 12.7278882 14.92737284 10.68359375 15.5859375 C8.97816406 16.1428125 8.97816406 16.1428125 7.23828125 16.7109375 C3.72770837 17.60657341 1.38687084 18.17917818 -2.19140625 17.5859375 C-4.62416139 15.90545019 -6.56226296 13.87343285 -8.56640625 11.7109375 C-9.38431641 10.87755859 -9.38431641 10.87755859 -10.21875 10.02734375 C-14.19140625 5.89538299 -14.19140625 5.89538299 -14.19140625 3.5859375 C-9.48675296 2.26863458 -4.71608396 1.26098501 0 0 Z " fill="#5D5A56" transform="translate(690.19140625,363.4140625)"/>
<path d="M0 0 C0.99 0.33 1.98 0.66 3 1 C-2.86504651 5.38468621 -8.95424268 9.2565921 -15.3125 12.875 C-16.3344043 13.46462524 -16.3344043 13.46462524 -17.37695312 14.06616211 C-20.90247086 16.04254933 -23.92032657 17.51075483 -28 18 C-24.22102308 12.17407725 -20.10475847 6.59920937 -16 1 C-14.7922442 4.62326739 -15.45688872 5.64146369 -17 9 C-13.535 8.505 -13.535 8.505 -10 8 C-10 7.34 -10 6.68 -10 6 C-8.68 6 -7.36 6 -6 6 C-6 5.34 -6 4.68 -6 4 C-5.34 4 -4.68 4 -4 4 C-4 3.34 -4 2.68 -4 2 C-2.68 2 -1.36 2 0 2 C0 1.34 0 0.68 0 0 Z " fill="#C3673B" transform="translate(684,897)"/>
<path d="M0 0 C1.40907732 4.36052307 -0.03074287 7.06148573 -2 11 C-2.474375 11.9075 -2.94875 12.815 -3.4375 13.75 C-6.32149687 19.74871349 -8.62267076 25.99677126 -10.0625 32.5 C-10.93030903 35.73982038 -11.34215139 37.06701919 -14 39 C-13.45565065 32.80714243 -12.02267042 27.54601701 -9.8125 21.75 C-9.50368896 20.92459717 -9.19487793 20.09919434 -8.87670898 19.2487793 C-6.33876314 12.59664869 -3.40905359 6.25617527 0 0 Z " fill="#D98847" transform="translate(422,407)"/>
<path d="M0 0 C0.33 0 0.66 0 1 0 C2.10261706 5.61332321 1.98805434 8.38785917 -0.19604492 13.828125 C-1.77121136 18.08341824 -2.55060207 22.5601372 -3.4609375 26.99609375 C-4.3351971 30.98759043 -5.19221921 33.96887301 -8 37 C-7.37428442 28.90094909 -5.46569792 21.28923649 -3.4375 13.4375 C-3.10426583 12.12969779 -2.77157937 10.82175589 -2.43945312 9.51367188 C-1.6316604 6.34103669 -0.81838245 3.1699169 0 0 Z " fill="#D37E47" transform="translate(683,638)"/>
<path d="M0 0 C0.33 0 0.66 0 1 0 C1.29230186 15.44328166 0.43900167 30.62449677 -1 46 C-1.33 46 -1.66 46 -2 46 C-2.41277905 14.88598505 -2.41277905 14.88598505 0 0 Z " fill="#C67B4E" transform="translate(286,801)"/>
<path d="M0 0 C2.79411908 2.79411908 2.45970068 5.55759554 2.625 9.3125 C2.66077148 10.02728516 2.69654297 10.74207031 2.73339844 11.47851562 C2.83482842 13.65201533 2.91881933 15.82566082 3 18 C3.05414062 19.21042969 3.10828125 20.42085937 3.1640625 21.66796875 C3.33311153 28.22246056 2.80097349 33.04793133 0 39 C-0.99595783 35.80638442 -0.96577803 33.35041153 -0.56640625 30.04296875 C0.08203124 23.78445412 0.1125471 17.59918607 0.0625 11.3125 C0.05798828 10.21744141 0.05347656 9.12238281 0.04882812 7.99414062 C0.03719156 5.32936691 0.02084564 2.66471483 0 0 Z " fill="#C77144" transform="translate(730,851)"/>
<path d="M0 0 C0.66 0 1.32 0 2 0 C2.97173301 4.81036252 3.10008777 9.43584518 2.984375 14.3203125 C2.96787903 15.10139374 2.95138306 15.88247498 2.93438721 16.68722534 C2.89707114 18.32948134 2.85654965 19.97166732 2.81298828 21.61376953 C2.7500265 24.12394357 2.70870805 26.63391073 2.66796875 29.14453125 C2.62893379 30.74482465 2.58861335 32.34508732 2.546875 33.9453125 C2.53734802 34.69330109 2.52782104 35.44128967 2.51800537 36.21194458 C2.3806988 40.39330802 1.97634138 42.96119709 -1 46 C-0.9285376 45.41694092 -0.8570752 44.83388184 -0.78344727 44.2331543 C0.20074904 35.09173273 0.1119098 25.99246807 0.0625 16.8125 C0.05747294 15.17643367 0.05291217 13.54036583 0.04882812 11.90429688 C0.03792277 7.93616014 0.0207253 3.96809709 0 0 Z " fill="#D6884F" transform="translate(438,597)"/>
<path d="M0 0 C0.99 0.495 0.99 0.495 2 1 C2.73075648 3.3140622 3.40138258 5.64828869 4 8 C3.34 8 2.68 8 2 8 C2 18.89 2 29.78 2 41 C1.34 41 0.68 41 0 41 C0 27.47 0 13.94 0 0 Z " fill="#D1844A" transform="translate(543,518)"/>
<path d="M0 0 C0.33 0.66 0.66 1.32 1 2 C-0.21484375 4.6015625 -0.21484375 4.6015625 -1.9375 7.625 C-2.50339844 8.62789063 -3.06929688 9.63078125 -3.65234375 10.6640625 C-4.09707031 11.43492187 -4.54179687 12.20578125 -5 13 C-5.33 12.01 -5.66 11.02 -6 10 C-6.54269531 10.44472656 -7.08539063 10.88945312 -7.64453125 11.34765625 C-8.71767578 12.19650391 -8.71767578 12.19650391 -9.8125 13.0625 C-10.52019531 13.63097656 -11.22789062 14.19945312 -11.95703125 14.78515625 C-12.63121094 15.18605469 -13.30539062 15.58695312 -14 16 C-14.99 15.67 -15.98 15.34 -17 15 C-15.10600285 13.24797712 -13.20988262 11.49835022 -11.3125 9.75 C-10.51682617 9.01330078 -10.51682617 9.01330078 -9.70507812 8.26171875 C-6.56566972 5.37269261 -3.36822939 2.62459433 0 0 Z " fill="#D88742" transform="translate(471,351)"/>
<path d="M0 0 C0.33 0 0.66 0 1 0 C1.66 5.28 2.32 10.56 3 16 C1 15 1 15 0 12 C-0.99 14.31 -1.98 16.62 -3 19 C-4.67641098 14.90913548 -3.2409319 11.28488982 -2.0625 7.25 C-1.86720703 6.55261719 -1.67191406 5.85523438 -1.47070312 5.13671875 C-0.9891754 3.42201027 -0.49574843 1.71065123 0 0 Z " fill="#CE834E" transform="translate(696,588)"/>
<path d="M0 0 C0.66 0 1.32 0 2 0 C3.5078125 1.86328125 3.5078125 1.86328125 5.125 4.3125 C5.66382813 5.11300781 6.20265625 5.91351562 6.7578125 6.73828125 C8 9 8 9 8 12 C8.66 12 9.32 12 10 12 C10.33 13.32 10.66 14.64 11 16 C11.66 16 12.32 16 13 16 C13.33 17.32 13.66 18.64 14 20 C14.66 20 15.32 20 16 20 C16.33 20.99 16.66 21.98 17 23 C16.01 23 15.02 23 14 23 C12.2058016 20.69959203 10.62667952 18.44969571 9.0625 16 C8.63259766 15.35160156 8.20269531 14.70320312 7.75976562 14.03515625 C4.80666399 9.50915829 2.34216916 4.86910341 0 0 Z " fill="#C36B41" transform="translate(313,935)"/>
<path d="M0 0 C0.33 0.99 0.66 1.98 1 3 C0.360625 3.598125 -0.27875 4.19625 -0.9375 4.8125 C-3.20310389 6.90810337 -3.20310389 6.90810337 -4 10 C-5.64302953 11.68997323 -7.31471312 13.35216394 -9 15 C-11.03825144 17.30140597 -13.02464191 19.64450427 -15 22 C-15.66 21.67 -16.32 21.34 -17 21 C-5.47835991 6.21867882 -5.47835991 6.21867882 0 0 Z " fill="#D78A4A" transform="translate(449,371)"/>
<path d="M0 0 C5.02380534 6.24039638 7.52081311 14.20065093 9 22 C8.54296875 24.2265625 8.54296875 24.2265625 8 26 C6.65909207 22.2318169 5.3285821 18.46004479 4 14.6875 C3.6184375 13.61564453 3.236875 12.54378906 2.84375 11.43945312 C2.30234375 9.89741211 2.30234375 9.89741211 1.75 8.32421875 C1.41484375 7.37635498 1.0796875 6.42849121 0.734375 5.4519043 C0 3 0 3 0 0 Z " fill="#D6884D" transform="translate(417,527)"/>
<path d="M0 0 C0.33 0 0.66 0 1 0 C1.56611298 6.79335571 0.52162668 11.19373379 -3 17 C-3.5775 17.99 -4.155 18.98 -4.75 20 C-5.1625 20.66 -5.575 21.32 -6 22 C-7 20 -7 20 -6.47094727 17.93701172 C-6.17244873 17.10959473 -5.8739502 16.28217773 -5.56640625 15.4296875 C-5.24736328 14.53378906 -4.92832031 13.63789062 -4.59960938 12.71484375 C-4.25736328 11.77769531 -3.91511719 10.84054687 -3.5625 9.875 C-3.22412109 8.93011719 -2.88574219 7.98523438 -2.53710938 7.01171875 C-1.6981094 4.67197234 -0.85215708 2.33497991 0 0 Z " fill="#C56E45" transform="translate(792,924)"/>
<path d="M0 0 C0.66 0 1.32 0 2 0 C0.27653975 3.97570945 -2.35202746 7.23559514 -5 10.625 C-5.45117188 11.21023438 -5.90234375 11.79546875 -6.3671875 12.3984375 C-8.15940597 14.71029327 -9.92951793 16.92951793 -12 19 C-11.67 16.69 -11.34 14.38 -11 12 C-10.01 12 -9.02 12 -8 12 C-7.67 10.68 -7.34 9.36 -7 8 C-6.34 8 -5.68 8 -5 8 C-5 7.34 -5 6.68 -5 6 C-4.34 6 -3.68 6 -3 6 C-2.67 4.68 -2.34 3.36 -2 2 C-1.34 2 -0.68 2 0 2 C0 1.34 0 0.68 0 0 Z " fill="#CD7D4B" transform="translate(473,739)"/>
<path d="M0 0 C0.33 0.99 0.66 1.98 1 3 C3.97 3.33 6.94 3.66 10 4 C10 4.33 10 4.66 10 5 C11.65 5.33 13.3 5.66 15 6 C15 6.33 15 6.66 15 7 C8.4294834 7.24794402 2.43028541 6.32388229 -4 5 C-2.68 3.35 -1.36 1.7 0 0 Z " fill="#BD6D4A" transform="translate(736,1017)"/>
<path d="M0 0 C0.66 0 1.32 0 2 0 C2.23187012 0.52956299 2.46374023 1.05912598 2.70263672 1.60473633 C3.75715416 4.00862504 4.81602611 6.41057134 5.875 8.8125 C6.23980469 9.64587891 6.60460937 10.47925781 6.98046875 11.33789062 C7.33496094 12.14033203 7.68945312 12.94277344 8.0546875 13.76953125 C8.37937012 14.50792236 8.70405273 15.24631348 9.03857422 16.00708008 C10.05653856 18.23438861 10.05653856 18.23438861 12 21 C11.34 21.33 10.68 21.66 10 22 C8.51011757 19.27655418 7.03506263 16.54534386 5.5625 13.8125 C5.14162109 13.04357422 4.72074219 12.27464844 4.28710938 11.48242188 C2.24987575 7.68501839 0.47990505 4.35404764 0 0 Z " fill="#C5724A" transform="translate(300,909)"/>
<path d="M0 0 C0.66 0 1.32 0 2 0 C1.65198038 6.07234226 1.0099544 10.60716504 -2 16 C-2.69907414 18.73572585 -2.69907414 18.73572585 -3 21 C-3.66 21 -4.32 21 -5 21 C-4.71682074 19.39431334 -4.42312209 17.79047953 -4.125 16.1875 C-3.96257813 15.29417969 -3.80015625 14.40085937 -3.6328125 13.48046875 C-3 11 -3 11 -1 8 C-0.54860541 5.9507906 -0.54860541 5.9507906 -0.375 3.8125 C-0.189375 1.9253125 -0.189375 1.9253125 0 0 Z " fill="#CC884C" transform="translate(814,783)"/>
<path d="M0 0 C0.97812873 3.05628064 1.00835683 4.85277447 0.00390625 7.890625 C-0.33930664 8.95410156 -0.33930664 8.95410156 -0.68945312 10.0390625 C-0.93630859 10.76867187 -1.18316406 11.49828125 -1.4375 12.25 C-1.68048828 12.99507812 -1.92347656 13.74015625 -2.17382812 14.5078125 C-2.77332981 16.34158235 -3.38544487 18.17122004 -4 20 C-4.66 20 -5.32 20 -6 20 C-5.50104522 12.84831485 -2.68436185 6.58708719 0 0 Z " fill="#CE7D4B" transform="translate(390,733)"/>
<path d="M0 0 C2.05123248 2.05123248 2.64147118 3.27005063 3.625 5.9375 C3.88539063 6.62714844 4.14578125 7.31679688 4.4140625 8.02734375 C5 10 5 10 5 13 C3.68 13 2.36 13 1 13 C0.1276588 10.00519083 -0.10829766 7.36424089 -0.0625 4.25 C-0.05347656 3.45078125 -0.04445313 2.6515625 -0.03515625 1.828125 C-0.02355469 1.22484375 -0.01195312 0.6215625 0 0 Z " fill="#CE7D3F" transform="translate(801,636)"/>
<path d="M0 0 C0.33 0.66 0.66 1.32 1 2 C0.0625 4.125 0.0625 4.125 -1 6 C0.98 6 2.96 6 5 6 C2.14521674 7.90318884 0.58058692 8.4619099 -2.6875 9.125 C-3.49574219 9.29257812 -4.30398438 9.46015625 -5.13671875 9.6328125 C-5.75160156 9.75398437 -6.36648438 9.87515625 -7 10 C-6.02223933 8.51990357 -5.0427506 7.04094856 -4.0625 5.5625 C-3.51722656 4.73878906 -2.97195313 3.91507813 -2.41015625 3.06640625 C-1 1 -1 1 0 0 Z " fill="#BF7552" transform="translate(698,957)"/>
<path d="M0 0 C1.91037145 3.56186078 3.25858036 7.26289451 4.625 11.0625 C5.07101562 12.29097656 5.51703125 13.51945313 5.9765625 14.78515625 C7 18 7 18 7 21 C6.34 21 5.68 21 5 21 C4.65066406 19.94039062 4.30132812 18.88078125 3.94140625 17.7890625 C3.48185012 16.40101541 3.02221036 15.01299601 2.5625 13.625 C2.21735352 12.57699219 2.21735352 12.57699219 1.86523438 11.5078125 C0.61264601 7.68189163 0.61264601 7.68189163 -1 4 C-0.5625 1.875 -0.5625 1.875 0 0 Z " fill="#C5754E" transform="translate(369,922)"/>
<path d="M0 0 C2.86562595 2.47906057 4.1617794 5.12161059 5.6875 8.5625 C6.12449219 9.53316406 6.56148438 10.50382813 7.01171875 11.50390625 C8 14 8 14 8 16 C7.34 16 6.68 16 6 16 C4.99303432 13.89915791 3.9946411 11.79420511 3 9.6875 C2.443125 8.51574219 1.88625 7.34398437 1.3125 6.13671875 C0 3 0 3 0 0 Z " fill="#C56B42" transform="translate(376,945)"/>
<path d="M0 0 C0.66 0 1.32 0 2 0 C3.7265625 2.1171875 3.7265625 2.1171875 5.625 4.875 C6.25664062 5.77992188 6.88828125 6.68484375 7.5390625 7.6171875 C9 10 9 10 9 12 C9.66 12 10.32 12 11 12 C11.33 13.65 11.66 15.3 12 17 C6.85104502 12.47516078 3.43278366 6.89607799 0 1 C0 0.67 0 0.34 0 0 Z " fill="#C26E42" transform="translate(369,891)"/>
<path d="M0 0 C0.66 0.33 1.32 0.66 2 1 C-6.04866412 11.11832061 -6.04866412 11.11832061 -12 12 C-8 8 -4 4 0 0 Z " fill="#525251" transform="translate(466,1108)"/>
<path d="M0 0 C2.64752004 2.57784846 4.94432065 4.91648098 7 8 C5.53984709 7.71758359 4.08190207 7.42373386 2.625 7.125 C1.81289063 6.96257813 1.00078125 6.80015625 0.1640625 6.6328125 C-2 6 -2 6 -4 4 C-2.35 4 -0.7 4 1 4 C0.67 2.68 0.34 1.36 0 0 Z " fill="#BD6D44" transform="translate(464,959)"/>
<path d="M0 0 C2.53109047 2.22792364 3.57999897 4.0386252 4.5625 7.25 C4.80742187 8.03761719 5.05234375 8.82523438 5.3046875 9.63671875 C5.53414063 10.41660156 5.76359375 11.19648437 6 12 C6.20882813 12.70769531 6.41765625 13.41539062 6.6328125 14.14453125 C7.09994753 15.75976574 7.55175494 17.37942172 8 19 C7.34 19 6.68 19 6 19 C4.99394407 16.39802798 3.99497475 13.79370638 3 11.1875 C2.57074219 10.08051758 2.57074219 10.08051758 2.1328125 8.95117188 C1.86210937 8.23896484 1.59140625 7.52675781 1.3125 6.79296875 C1.06113281 6.1383667 0.80976563 5.48376465 0.55078125 4.80932617 C0 3 0 3 0 0 Z " fill="#BB8D55" transform="translate(471,817)"/>
<path d="M0 0 C0.28746094 0.57878906 0.57492187 1.15757812 0.87109375 1.75390625 C1.57980738 3.16397662 2.29956419 4.56860674 3.03515625 5.96484375 C4.94155629 9.62542178 6.48096277 12.8477022 7 17 C6.34 17.33 5.68 17.66 5 18 C4.15621025 15.94175571 3.32536378 13.87820214 2.5 11.8125 C2.0359375 10.66394531 1.571875 9.51539063 1.09375 8.33203125 C0.09194348 5.28009923 -0.23870804 3.16884928 0 0 Z " fill="#C9754C" transform="translate(294,891)"/>
<path d="M0 0 C1.65770135 2.53460134 2.0461239 3.67805518 1.609375 6.7265625 C1.32578125 7.68304687 1.0421875 8.63953125 0.75 9.625 C0.34007812 11.06746094 0.34007812 11.06746094 -0.078125 12.5390625 C-1 15 -1 15 -3 17 C-2.36934845 11.2190275 -1.34844868 5.6556294 0 0 Z " fill="#D07F4C" transform="translate(669,695)"/>
<path d="M0 0 C1.32 0 2.64 0 4 0 C4 0.66 4 1.32 4 2 C4.66 2 5.32 2 6 2 C6 2.66 6 3.32 6 4 C8.31 4 10.62 4 13 4 C12.01 4.99 11.02 5.98 10 7 C5.56541027 5.6062718 3.12621626 3.39417765 0 0 Z " fill="#C2734F" transform="translate(396,1027)"/>
<path d="M0 0 C0.66 0.33 1.32 0.66 2 1 C1.55527344 2.04220703 1.55527344 2.04220703 1.1015625 3.10546875 C-0.05578837 6.14659284 -0.86065004 9.15087063 -1.625 12.3125 C-1.88539063 13.38113281 -2.14578125 14.44976563 -2.4140625 15.55078125 C-2.70410156 16.76314453 -2.70410156 16.76314453 -3 18 C-3.66 18 -4.32 18 -5 18 C-4.35702496 15.37426939 -3.71075589 12.74942697 -3.0625 10.125 C-2.88009766 9.37863281 -2.69769531 8.63226562 -2.50976562 7.86328125 C-1.11328125 2.2265625 -1.11328125 2.2265625 0 0 Z " fill="#C39860" transform="translate(475,745)"/>
<path d="M0 0 C1.9375 0.3125 1.9375 0.3125 4 1 C4.33 1.99 4.66 2.98 5 4 C5.66 4 6.32 4 7 4 C7 4.66 7 5.32 7 6 C7.66 6 8.32 6 9 6 C8.67 7.32 8.34 8.64 8 10 C6.66370254 8.52351062 5.33103329 7.0437367 4 5.5625 C3.2575 4.73878906 2.515 3.91507813 1.75 3.06640625 C0 1 0 1 0 0 Z " fill="#C66E46" transform="translate(341,975)"/>
<path d="M0 0 C0.66 1.32 1.32 2.64 2 4 C1.566875 4.350625 1.13375 4.70125 0.6875 5.0625 C-1.68358456 7.78485635 -2.6716835 10.64758216 -4 14 C-4.66 14 -5.32 14 -6 14 C-4.50829734 9.0276578 -2.39542583 4.58154261 0 0 Z " fill="#D2834C" transform="translate(530,601)"/>
<path d="M0 0 C3.93673644 1.31224548 6.22719294 2.91910327 9 6 C7.68 6 6.36 6 5 6 C4.67 6.66 4.34 7.32 4 8 C2.68 5.36 1.36 2.72 0 0 Z " fill="#CA8553" transform="translate(348,561)"/>
<path d="M0 0 C1.10176129 3.35216734 0.89303058 5.75121078 0.1875 9.1875 C0.01605469 10.06792969 -0.15539062 10.94835937 -0.33203125 11.85546875 C-0.55246094 12.56316406 -0.77289062 13.27085937 -1 14 C-1.99 14.495 -1.99 14.495 -3 15 C-2.44854729 9.76119922 -1.57077907 5.02649303 0 0 Z " fill="#D28049" transform="translate(687,623)"/>
<path d="M0 0 C-0.33 0.66 -0.66 1.32 -1 2 C-3.50390625 2.6328125 -3.50390625 2.6328125 -6.5625 3.125 C-8.08037109 3.37636719 -8.08037109 3.37636719 -9.62890625 3.6328125 C-10.80259766 3.81457031 -10.80259766 3.81457031 -12 4 C-4.76775432 -1.58925144 -4.76775432 -1.58925144 0 0 Z " fill="#535151" transform="translate(541,1140)"/>
<path d="M0 0 C0.66 0.66 1.32 1.32 2 2 C0.35 3.98 -1.3 5.96 -3 8 C-3.99 7.67 -4.98 7.34 -6 7 C-4.02 4.69 -2.04 2.38 0 0 Z " fill="#C56C44" transform="translate(751,1001)"/>
<path d="M0 0 C5.80205656 5.64524422 5.80205656 5.64524422 8 9 C8 9.66 8 10.32 8 11 C7.34 11 6.68 11 6 11 C6 10.34 6 9.68 6 9 C5.34 9 4.68 9 4 9 C3.34 7.02 2.68 5.04 2 3 C1.34 3 0.68 3 0 3 C0 2.01 0 1.02 0 0 Z " fill="#C16C45" transform="translate(396,982)"/>
<path d="M0 0 C0.33 0 0.66 0 1 0 C1.41176754 3.60296594 1.1535853 4.78402067 -1 7.8125 C-1.66 8.534375 -2.32 9.25625 -3 10 C-3.99 9.67 -4.98 9.34 -6 9 C-5.02501855 7.4972763 -4.04490611 5.99788037 -3.0625 4.5 C-2.51722656 3.6646875 -1.97195313 2.829375 -1.41015625 1.96875 C-0.94480469 1.3190625 -0.47945312 0.669375 0 0 Z " fill="#C56A3F" transform="translate(709,941)"/>
<path d="M0 0 C1 2 1 2 0.328125 4.12890625 C-0.02765625 4.93199219 -0.3834375 5.73507812 -0.75 6.5625 C-1.09546875 7.36816406 -1.4409375 8.17382812 -1.796875 9.00390625 C-3 11 -3 11 -6 12 C-4.68139111 7.38486888 -2.78644563 3.90102388 0 0 Z " fill="#CE7F4C" transform="translate(334,691)"/>
<path d="M0 0 C0.66 0.33 1.32 0.66 2 1 C-0.31 3.97 -2.62 6.94 -5 10 C-5.33 8.68 -5.66 7.36 -6 6 C-5.34 6 -4.68 6 -4 6 C-4 5.34 -4 4.68 -4 4 C-3.34 4 -2.68 4 -2 4 C-2 3.34 -2 2.68 -2 2 C-1.34 2 -0.68 2 0 2 C0 1.34 0 0.68 0 0 Z " fill="#C36C40" transform="translate(783,903)"/>
<path d="M0 0 C0.66 0 1.32 0 2 0 C4.28571429 8.42857143 4.28571429 8.42857143 4 13 C1.12420019 8.68630028 0 5.19265239 0 0 Z " fill="#D58549" transform="translate(410,505)"/>
<path d="M0 0 C0.33 0.66 0.66 1.32 1 2 C-0.125 4.5625 -0.125 4.5625 -2 7 C-4.6875 7.8125 -4.6875 7.8125 -7 8 C-6.02133662 6.85373678 -5.04205413 5.70800212 -4.0625 4.5625 C-3.51722656 3.92441406 -2.97195313 3.28632812 -2.41015625 2.62890625 C-1.63204305 1.73008851 -0.84063472 0.84063472 0 0 Z " fill="#C26C46" transform="translate(744,1009)"/>
<path d="M0 0 C0.33 0.66 0.66 1.32 1 2 C-0.01553817 5.0466145 -1.20762558 7.31143836 -3 10 C-3.66 10 -4.32 10 -5 10 C-3.66511872 6.40608886 -2.03977277 3.24509304 0 0 Z " fill="#C2683E" transform="translate(774,967)"/>
<path d="M0 0 C0.33 0.66 0.66 1.32 1 2 C1.99 2.33 2.98 2.66 4 3 C2.03533587 4.06775224 0.03144641 5.06553465 -2 6 C-2.66 5.67 -3.32 5.34 -4 5 C-2.68 3.35 -1.36 1.7 0 0 Z " fill="#B9704B" transform="translate(660,909)"/>
<path d="M0 0 C0.99 0.33 1.98 0.66 3 1 C-1.455 3.97 -1.455 3.97 -6 7 C-6 6.01 -6 5.02 -6 4 C-5.34 4 -4.68 4 -4 4 C-4 3.34 -4 2.68 -4 2 C-2.68 2 -1.36 2 0 2 C0 1.34 0 0.68 0 0 Z " fill="#C6754E" transform="translate(684,897)"/>
<path d="M0 0 C0.33 0 0.66 0 1 0 C1 3.3 1 6.6 1 10 C-0.98 10.99 -0.98 10.99 -3 12 C-2.01 8.04 -1.02 4.08 0 0 Z " fill="#D2814B" transform="translate(436,643)"/>
<path d="M0 0 C0.66 0 1.32 0 2 0 C1.34 1.98 0.68 3.96 0 6 C-0.33 5.34 -0.66 4.68 -1 4 C-2.65 4.66 -4.3 5.32 -6 6 C-4 4 -2 2 0 0 Z " fill="#CCA569" transform="translate(810,563)"/>
<path d="M0 0 C0.33 0.66 0.66 1.32 1 2 C0.22265625 3.7265625 0.22265625 3.7265625 -0.9375 5.625 C-1.618125 6.73875 -2.29875 7.8525 -3 9 C-3.33 8.01 -3.66 7.02 -4 6 C-4.66 5.67 -5.32 5.34 -6 5 C-4.02 3.35 -2.04 1.7 0 0 Z " fill="#CC925C" transform="translate(471,351)"/>
<path d="M0 0 C2.475 0.99 2.475 0.99 5 2 C5.33 1.34 5.66 0.68 6 0 C6 1.98 6 3.96 6 6 C3.37812506 4.95125002 2.20628639 4.35068687 0.75 1.875 C0.5025 1.25625 0.255 0.6375 0 0 Z " fill="#B28653" transform="translate(503,871)"/>
<path d="M0 0 C0.99 0 1.98 0 3 0 C3.33 1.32 3.66 2.64 4 4 C4.66 4 5.32 4 6 4 C6.33 4.99 6.66 5.98 7 7 C6.01 7.495 6.01 7.495 5 8 C4.16382818 6.8562364 3.33113541 5.70992861 2.5 4.5625 C2.0359375 3.92441406 1.571875 3.28632812 1.09375 2.62890625 C0 1 0 1 0 0 Z " fill="#C6714B" transform="translate(335,967)"/>
<path d="M0 0 C1.80330533 3.60661066 2.46599103 6.08393425 3 10 C2.01 9.67 1.02 9.34 0 9 C0 6.03 0 3.06 0 0 Z " fill="#D9894B" transform="translate(452,446)"/>
<path d="" fill="#B8A27D" transform="translate(0,0)"/>
<path d="" fill="#C1B398" transform="translate(0,0)"/>
<path d="" fill="#BCAB8F" transform="translate(0,0)"/>
</svg>
